<?xml version="1.0" encoding="utf-8"?>
<!-- Generator: Adobe Illustrator 18.0.0, SVG Export Plug-In . SVG Version: 6.00 Build 0)  -->
<!DOCTYPE svg PUBLIC "-//W3C//DTD SVG 1.1//EN" "http://www.w3.org/Graphics/SVG/1.1/DTD/svg11.dtd">
<svg version="1.1" id="Layer_1" xmlns="http://www.w3.org/2000/svg" xmlns:xlink="http://www.w3.org/1999/xlink" x="0px" y="0px"
	 viewBox="-13 -13 50 50" enable-background="new -13 -13 50 50" xml:space="preserve">
<g>
	<path fill="#FFFFFF" d="M24.9-6H-6.6C-6.8-6-7-5.1-7-4.8v40.1c0,0.3,0.1,0.7,0.4,0.7h31.5c0.2,0,1.1-0.5,1.1-0.7V-4.8
		C26-5.1,25.1-6,24.9-6z M13,29H-2v-2h15V29z M22,21H-2v-2h24V21z M22,15H-2v-2h24V15z M22,9H-2V7h24V9z M22,3H-2V1h24V3z"/>
	<polygon fill="#FFFFFF" points="0,-8 28,-8 28,29 32,29 32,-12 0,-12 	"/>
</g>
</svg>
