<?xml version="1.0" encoding="utf-8"?>
<!-- Generator: Adobe Illustrator 18.0.0, SVG Export Plug-In . SVG Version: 6.00 Build 0)  -->
<!DOCTYPE svg PUBLIC "-//W3C//DTD SVG 1.1//EN" "http://www.w3.org/Graphics/SVG/1.1/DTD/svg11.dtd">
<svg version="1.1" id="Layer_1" xmlns="http://www.w3.org/2000/svg" xmlns:xlink="http://www.w3.org/1999/xlink" x="0px" y="0px"
	 viewBox="0 0 50 50" enable-background="new 0 0 50 50" xml:space="preserve">
<g>
	<rect fill="none" width="50" height="50"/>
	<path fill="#FFFFFF" d="M15.8,17.7c0.9,0,1.7-0.3,2.3-0.7l6.6,3.9c0,0.1,0,0.2,0,0.3c0,2.3,1.8,4.1,4.1,4.1c2.3,0,4.1-1.8,4.1-4.1
		c0-0.5-0.1-1-0.3-1.4l7.6-8.2l4.5,3.9l2.7-14.4L33.5,5.8l4,3.4l-7.5,8.1c-0.4-0.1-0.8-0.2-1.2-0.2c-0.8,0-1.6,0.2-2.2,0.7l-6.7-4
		c0-0.1,0-0.1,0-0.2c0-2.3-1.8-4.1-4.1-4.1c-2.3,0-4.1,1.8-4.1,4.1c0,0.4,0.1,0.8,0.2,1.1l-5.4,5v4.9l7.9-7.2
		C14.7,17.6,15.2,17.7,15.8,17.7 M15.8,32.4c1.1,0,2.1-0.5,2.9-1.2l11.7,4.4c0.2,2.1,1.9,3.7,4.1,3.7c2.3,0,4.1-1.8,4.1-4.1
		c0-0.6-0.1-1.1-0.3-1.6l6.9-7.8l2.7,2L49,18l-9.2,3.7l2.4,1.8l-6.7,7.6c-0.3-0.1-0.7-0.1-1.1-0.1c-1.1,0-2.1,0.4-2.8,1.1l-11.8-4.4
		c-0.3-2-2-3.5-4-3.5c-2.3,0-4.1,1.8-4.1,4.1c0,0.1,0,0.2,0,0.3l-5.3,3.3v4.2l7.1-4.4C14.2,32.1,15,32.4,15.8,32.4 M3.6,46.4
		L3.6,46.4l-0.1,0V0H0v50h50v-3.6H3.6z"/>
</g>
</svg>
