<?xml version="1.0" encoding="utf-8"?>
<!-- Generator: Adobe Illustrator 18.0.0, SVG Export Plug-In . SVG Version: 6.00 Build 0)  -->
<!DOCTYPE svg PUBLIC "-//W3C//DTD SVG 1.1//EN" "http://www.w3.org/Graphics/SVG/1.1/DTD/svg11.dtd">
<svg version="1.1" id="Layer_1" xmlns="http://www.w3.org/2000/svg" xmlns:xlink="http://www.w3.org/1999/xlink" x="0px" y="0px"
	 viewBox="0 0 162.8 42.9" enable-background="new 0 0 162.8 42.9" xml:space="preserve">
<g>
	<rect x="-3.8" y="-0.8" fill="none" width="168" height="45"/>
	<g>
		<path fill="#4DA6DE" d="M124.1,17.4c-0.5-5.2-5.1-9-10.3-8.5c-0.4,0-0.9,0.1-1.3,0.2l-0.1,0c-4.5,1.1-7.6,5.4-7.2,10.1
			c0,0.3,0.1,0.7,0.2,1l0,0c0,0,0,0,0,0l0,0c0.1,0.5,0.9,3,2.5,4.7l0,0c1.9,2,4.7,3.1,7.7,2.8c1.4-0.1,2.8-0.6,3.9-1.3
			c1.2-0.7,2.3-1.7,3-2.9h0c1.5-2.2,1.6-4.3,1.6-5.1C124.2,18.1,124.1,17.8,124.1,17.4z M122.6,13.9c-0.1,0.3-0.2,0.5-0.3,0.7
			c-0.3-0.6-0.7-1.1-1.1-1.6c0.2-0.2,0.3-0.4,0.4-0.7C122,12.8,122.3,13.3,122.6,13.9z M107.4,19.3c0.1-0.6,0.3-1.2,0.5-1.7
			c0.6,0.6,1.5,1.3,2.5,1.8c0,0.2-0.1,0.4-0.1,0.6l0,0c-0.1,0.3-0.1,0.7-0.2,1c-0.6-0.3-1.1-0.6-1.6-1l0,0
			C108.1,19.8,107.7,19.5,107.4,19.3z M118.2,14.3c0.5,0,1-0.1,1.5-0.3c0.3,0.6,0.6,1.2,0.9,1.9c-0.6,0.2-1.3,0.3-2.1,0.3
			C118.4,15.5,118.3,14.9,118.2,14.3z M118.5,16.6c0.8,0,1.5-0.1,2.2-0.3c0.2,0.6,0.4,1.3,0.5,2c-0.8,0.2-1.7,0.3-2.6,0.4
			C118.5,17.9,118.5,17.2,118.5,16.6z M120.8,15.8c-0.3-0.7-0.5-1.3-0.9-1.9c0.4-0.2,0.7-0.4,1-0.6c0.4,0.5,0.8,1,1.1,1.6
			C121.8,15.3,121.3,15.6,120.8,15.8z M119.8,13.6c-0.5-0.9-1.1-1.6-1.7-2.1c0-0.1,0.1-0.1,0.1-0.2c0.9,0.4,1.8,1,2.5,1.7
			C120.5,13.2,120.2,13.4,119.8,13.6z M119.5,13.7c-0.4,0.1-0.8,0.2-1.3,0.3c-0.2-0.8-0.4-1.5-0.6-2.1c0.1,0,0.2-0.1,0.3-0.1
			C118.4,12.2,119,12.9,119.5,13.7z M117.8,14.4c0.1,0.6,0.2,1.2,0.2,1.9c-0.8,0-1.7-0.1-2.5-0.3l0.5-1.8
			C116.6,14.3,117.2,14.4,117.8,14.4z M115.1,16.2l-0.5,2c-1.1-0.3-2.1-0.7-2.9-1.2c0.3-0.6,0.6-1.2,1-1.7
			C113.3,15.6,114.1,15.9,115.1,16.2z M112.8,14.9c0.4-0.6,0.8-1.1,1.2-1.6c0.5,0.3,1,0.5,1.7,0.7l-0.5,1.8
			C114.2,15.6,113.4,15.3,112.8,14.9z M114.5,18.5l-0.3,1.2h0l-0.2,0.7c-0.9-0.2-1.5-0.5-1.9-0.6c-0.5-0.2-0.9-0.4-1.3-0.6
			c0.2-0.6,0.4-1.3,0.7-1.9C112.3,17.8,113.3,18.2,114.5,18.5z M114.2,20.9c0.3,0.1,0.6,0.1,0.9,0.2c0.8,0.1,1.7,0.2,2.7,0.3
			c-0.1,0.5-0.2,1-0.4,1.5c-1.3,0-2.5-0.2-3.7-0.4L114.2,20.9z M115.2,20.7c-0.3-0.1-0.6-0.1-0.9-0.2l0.2-0.8v0l0.3-1.1
			c1.1,0.2,2.2,0.4,3.4,0.4l0,0.3l0,0c0,0.4-0.1,1-0.2,1.7C116.9,20.9,116,20.8,115.2,20.7z M114.9,18.2l0.5-2
			c0.9,0.2,1.8,0.3,2.7,0.3c0,0.6,0.1,1.3,0.1,2C117.1,18.6,116,18.5,114.9,18.2z M116.1,13.8l0.5-1.9c0.2,0,0.4,0,0.6,0
			c0.2,0.6,0.4,1.3,0.6,2.1C117.2,14,116.7,13.9,116.1,13.8z M115.7,13.7c-0.6-0.2-1.1-0.4-1.5-0.6c0.5-0.5,1-1,1.5-1.4
			c0.1,0.1,0.3,0.1,0.5,0.2L115.7,13.7z M113.9,12.8c-0.4-0.2-0.7-0.5-0.9-0.8c0.9-0.5,1.7-0.8,2.2-1c0.1,0.1,0.1,0.2,0.2,0.3
			C114.9,11.8,114.4,12.3,113.9,12.8z M113.7,13.1c-0.4,0.5-0.8,1-1.2,1.6c-0.6-0.4-1.1-0.8-1.5-1.3c0.6-0.5,1.1-0.8,1.7-1.2
			C112.9,12.5,113.3,12.8,113.7,13.1z M112.3,15c-0.4,0.6-0.7,1.1-1,1.7c-0.8-0.5-1.4-1.1-1.9-1.7c0.4-0.5,0.9-1,1.3-1.4
			C111.1,14.1,111.6,14.6,112.3,15z M111.2,17.1c-0.3,0.7-0.6,1.3-0.7,2c-1-0.6-1.8-1.2-2.4-1.8c0.3-0.7,0.7-1.3,1.1-1.9
			C109.7,15.9,110.4,16.5,111.2,17.1z M110.6,20.1L110.6,20.1C110.6,20.1,110.6,20,110.6,20.1C110.6,20,110.6,20,110.6,20.1
			L110.6,20.1c0-0.2,0.1-0.3,0.1-0.5c0.4,0.2,0.8,0.4,1.2,0.6v0c0.4,0.1,1,0.4,2,0.6l-0.4,1.5c0,0-0.1,0-0.1,0
			c-1.1-0.3-2.1-0.7-2.9-1.1C110.5,20.8,110.5,20.4,110.6,20.1z M113.2,22.6c0,0,0.1,0,0.1,0l-0.4,1.6c-0.9-0.3-1.8-0.7-2.6-1.1
			c0-0.5,0-1,0.1-1.6C111.2,21.9,112.2,22.3,113.2,22.6z M110.3,23.5c0.8,0.4,1.7,0.8,2.5,1.1l-0.3,1.1c-0.8-0.3-1.4-0.6-2.2-1.1
			C110.3,24.4,110.3,24,110.3,23.5z M113.2,24.9L113.2,24.9l0-0.2c0.9,0.2,2.1,0.4,3.3,0.4c-0.3,0.5-0.6,0.8-0.9,1.2
			c-1-0.1-1.8-0.2-2.5-0.4c-0.1,0-0.1,0-0.2-0.1L113.2,24.9z M113.3,24.4l0.4-1.6c1.2,0.3,2.4,0.4,3.7,0.5c-0.1,0.3-0.2,0.5-0.3,0.8
			l0,0c-0.1,0.3-0.2,0.5-0.4,0.7C115.4,24.7,114.2,24.6,113.3,24.4z M117.4,24.2L117.4,24.2c0.2-0.3,0.3-0.6,0.4-1
			c1,0,2.1-0.1,3.2-0.2c-0.1,0.2-0.1,0.4-0.2,0.6h0c-0.1,0.3-0.3,0.6-0.4,0.8c-1,0.2-2.1,0.4-3.2,0.4
			C117.2,24.6,117.3,24.4,117.4,24.2z M117.9,22.8c0.2-0.5,0.3-1.1,0.4-1.5c0.9,0,2-0.1,3-0.3c0,0.5-0.1,1-0.3,1.5
			C120,22.7,118.9,22.8,117.9,22.8z M118.4,20.9c0.1-0.7,0.2-1.3,0.2-1.6h0l0-0.3c1,0,1.9-0.1,2.7-0.4c0,0.1,0,0.2,0.1,0.3
			c0.1,0.4,0.1,1,0.1,1.8C120.3,20.8,119.3,20.9,118.4,20.9z M121,16.1c0.5-0.2,1-0.5,1.3-0.8c0.3,0.6,0.5,1.3,0.7,2
			c-0.4,0.3-0.9,0.6-1.5,0.8C121.4,17.4,121.2,16.8,121,16.1z M121.2,12.1c0,0.2-0.1,0.4-0.3,0.7c-0.8-0.8-1.7-1.5-2.7-1.9
			c0-0.1,0-0.1-0.1-0.2C119.3,10.8,120.3,11.3,121.2,12.1z M119.6,10.6c-0.5-0.2-1.1-0.3-1.7-0.4c0.2-0.2,0.3-0.3,0.4-0.3
			C118.7,10.1,119.1,10.4,119.6,10.6z M117.2,9.6c0.2,0.1,0.4,0.1,0.6,0.2c-0.1,0.1-0.2,0.2-0.3,0.3c-0.1-0.1-0.3-0.1-0.4-0.2
			L117.2,9.6z M116.8,9.5l-0.1,0.3c-0.1,0-0.3,0-0.4,0c0-0.1,0-0.2-0.1-0.4C116.5,9.4,116.6,9.5,116.8,9.5z M116.8,10.2
			c0.8,0.2,1.1,0.7,1,1c-0.1,0.3-0.6,0.6-1.4,0.4c-0.8-0.2-1.1-0.7-1-0.9C115.5,10.3,116,10,116.8,10.2z M115.9,9.3
			c0,0.2,0.1,0.3,0.1,0.4c-0.1,0-0.2,0-0.3,0.1c-0.6-0.3-1-0.5-1.4-0.6C114.8,9.2,115.4,9.2,115.9,9.3z M112.6,9.5
			c1.4,0,1.6,0.1,2.7,0.6c-0.1,0.1-0.1,0.1-0.1,0.2c-0.8-0.1-1.8-0.1-2.8,0.1C112.4,10,112.5,9.8,112.6,9.5z M115.1,10.6
			c0,0,0,0.1,0,0.1c-0.5,0.1-1.3,0.5-2.3,1c-0.2-0.3-0.3-0.7-0.4-1C113.4,10.5,114.3,10.5,115.1,10.6z M110.2,10.4
			c0.6-0.3,1.3-0.6,1.9-0.8c-0.1,0.3-0.2,0.6-0.2,0.8c-0.6,0.2-1.3,0.4-1.9,0.7C110.1,10.8,110.2,10.6,110.2,10.4z M112,10.8
			c0.1,0.4,0.2,0.8,0.4,1.1c-0.5,0.3-1.1,0.7-1.7,1.2c-0.4-0.6-0.6-1.1-0.6-1.6C110.8,11.2,111.4,11,112,10.8z M108.2,12
			c0.5-0.5,1-0.9,1.6-1.3c0,0.2,0,0.4,0,0.6c-0.6,0.3-1.1,0.6-1.6,1C108.1,12.2,108.1,12.1,108.2,12z M109.8,11.7
			c0.1,0.5,0.3,1.1,0.7,1.7c-0.5,0.4-0.9,0.9-1.4,1.4c-0.6-0.7-0.9-1.4-1-2C108.7,12.3,109.2,12,109.8,11.7z M107.8,12.5
			c0,0,0,0.1,0,0.1c-0.1,0.1-0.2,0.2-0.3,0.2C107.6,12.7,107.7,12.6,107.8,12.5z M106.6,14.2c0.4-0.5,0.8-0.9,1.2-1.2
			c0.2,0.6,0.5,1.3,1.1,2c-0.4,0.6-0.8,1.2-1.2,1.9c-0.8-0.9-1.2-1.7-1.3-2.3C106.5,14.5,106.5,14.3,106.6,14.2z M106.2,15.1
			c0.2,0.6,0.7,1.4,1.4,2.1c-0.2,0.5-0.4,1.1-0.5,1.7c-0.7-0.7-1.2-1.6-1.4-2.2C105.8,16.2,106,15.7,106.2,15.1z M105.7,19.8
			c0-0.2-0.1-0.4-0.1-0.6c-0.1-0.6-0.1-1.1,0-1.7c0.3,0.6,0.8,1.3,1.4,1.9c0,0.2-0.1,0.5-0.1,0.8l0,0c0,0,0,0,0,0c0,0,0,0,0,0l0,0
			c0,0.2,0,0.4,0,0.7C106.6,20.5,106.1,20.1,105.7,19.8L105.7,19.8z M105.9,20.4c0.4,0.3,0.8,0.7,1.2,1c0,0.4,0.1,0.9,0.3,1.5
			c-0.1-0.1-0.2-0.2-0.3-0.2l-0.4-0.3C106.2,21.5,106,20.8,105.9,20.4z M107.1,23.1c0.1,0.1,0.3,0.2,0.5,0.4
			c0.1,0.3,0.2,0.6,0.4,0.9C107.6,24,107.3,23.5,107.1,23.1z M108.8,25.3c-0.3-0.5-0.6-1-0.8-1.4c0.5,0.3,1.1,0.7,1.9,1.1
			c0,0,0,0.1,0,0.1c0,0,0,0,0,0v0c0,0.6,0.1,0.8,0.1,1.2C109.7,25.9,109.2,25.6,108.8,25.3z M110,24.5c-0.9-0.5-1.6-0.9-2.1-1.2
			c-0.2-0.5-0.3-1.1-0.4-1.5c0.8,0.6,1.6,1.1,2.5,1.6C109.9,23.8,110,24.2,110,24.5z M107.4,21.2c0-0.4,0-0.7,0-1l0,0
			c0-0.2,0-0.3,0-0.5c0.3,0.2,0.6,0.4,0.9,0.6l0,0c0.5,0.4,1.1,0.7,1.8,1c-0.1,0.5-0.1,1.1-0.1,1.5
			C109.1,22.4,108.2,21.8,107.4,21.2z M110.5,26.4c-0.1-0.5-0.1-0.7-0.1-1.3c0.2,0.1,0.5,0.3,0.7,0.4c0.4,0.2,0.9,0.4,1.3,0.6
			l-0.3,1C111.6,26.9,111.1,26.7,110.5,26.4z M112.6,27.2l0.3-1c0.8,0.2,1.6,0.4,2.5,0.5c-0.3,0.3-0.6,0.5-0.9,0.8
			C113.7,27.4,113.1,27.3,112.6,27.2z M117.6,26.9c-0.6,0.2-1.3,0.3-2,0.4c-0.2,0-0.4,0-0.6,0c0.3-0.2,0.5-0.5,0.8-0.7
			c0.7,0,1.5,0,2.2,0C117.9,26.7,117.7,26.8,117.6,26.9L117.6,26.9z M116.1,26.3c0.3-0.4,0.6-0.8,0.8-1.2c1,0,2.1-0.1,3.1-0.3
			c-0.4,0.6-0.9,1-1.4,1.4C117.7,26.3,116.8,26.4,116.1,26.3z M119.4,26.1L119.4,26.1c0.4-0.4,0.8-0.8,1.1-1.4
			c0.3-0.1,0.6-0.2,0.9-0.3C120.8,25.1,120.2,25.6,119.4,26.1z M122.3,23.3c-0.1,0.2-0.2,0.4-0.4,0.5c-0.3,0.1-0.7,0.3-1.1,0.4
			c0.1-0.2,0.2-0.3,0.3-0.5l0,0c0.1-0.3,0.2-0.5,0.3-0.8c0.4-0.1,0.9-0.1,1.3-0.2C122.6,22.9,122.4,23.1,122.3,23.3L122.3,23.3z
			 M122.8,22.3c-0.5,0.1-0.9,0.2-1.4,0.3c0.1-0.5,0.2-1.1,0.2-1.5c0.5-0.1,1-0.2,1.5-0.4C123.1,21.2,123,21.7,122.8,22.3z
			 M123.3,18.6c0,0.4,0.1,1,0,1.7c-0.5,0.1-1,0.3-1.5,0.4c0-0.7,0-1.3-0.1-1.8l0,0c0,0,0,0,0,0c0,0,0,0,0,0l0,0c0-0.1,0-0.2-0.1-0.4
			c0.6-0.2,1.1-0.5,1.5-0.8C123.2,18,123.2,18.3,123.3,18.6L123.3,18.6z M122.5,15c0.1-0.2,0.3-0.4,0.4-0.7c0.3,0.6,0.6,1.3,0.7,2.1
			c-0.1,0.2-0.2,0.4-0.3,0.6C123.1,16.3,122.8,15.6,122.5,15z M123.8,18.5L123.8,18.5c0,0.3,0,0.8-0.1,1.4c0-0.5,0-1,0-1.4h0
			c0,0,0,0,0,0c0,0,0,0,0,0h0c-0.1-0.4-0.1-0.7-0.2-1.1c0.1-0.1,0.2-0.2,0.3-0.4c0,0.1,0,0.3,0.1,0.4
			C123.8,17.8,123.8,18.1,123.8,18.5z"/>
		<g>
			<path fill="#A4A8AB" d="M20.4,18.1h-4.6c-0.1,0-0.2,0.1-0.3,0.2c-0.4,2.8-1.9,4.6-4.7,4.6c-4.1,0-5.6-3.4-5.6-7
				c0-3.7,1.5-7.2,5.6-7.2c2.2,0,4.2,1.6,4.5,3.6c0,0.1,0.1,0.2,0.3,0.2h4.6c0.1,0,0.1,0,0.2-0.1c0-0.1,0.1-0.1,0.1-0.2
				c-0.6-5.1-4.7-8-9.6-8c-3.4,0-6.1,1.3-8,3.4C1,9.8,0,12.7,0,16c0,3.2,1,6,2.9,8.1c1.9,2.1,4.6,3.4,8,3.4c0,0,0,0,0,0
				c5.4,0,9.3-3.6,9.7-9.1c0-0.1,0-0.1-0.1-0.2C20.5,18.1,20.5,18.1,20.4,18.1z M33.5,10.5c-0.3-0.1-0.7-0.2-1-0.2
				c-1.9,0-3.8,1-4.8,2.7v-2c0-0.1,0-0.1-0.1-0.2c0,0-0.1-0.1-0.2-0.1h-4.1c-0.1,0-0.1,0-0.2,0.1c0,0-0.1,0.1-0.1,0.2v15.7
				c0,0.1,0,0.1,0.1,0.2c0,0,0.1,0.1,0.2,0.1h4.3c0.1,0,0.1,0,0.2-0.1c0,0,0.1-0.1,0.1-0.2v-7.1c0-2.7,1-4.8,4-4.8
				c0.5,0,1.1,0.1,1.5,0.1c0.1,0,0.2,0,0.2-0.1c0.1,0,0.1-0.1,0.1-0.2v-4C33.7,10.6,33.6,10.5,33.5,10.5z M42.5,10.3
				c-2.4,0-4.5,0.9-6,2.5c-1.5,1.5-2.3,3.7-2.3,6.1c0,2.5,0.8,4.6,2.2,6.1c1.4,1.5,3.5,2.4,6,2.4c0,0,0,0,0,0c3.6,0,6.3-1.7,7.5-5.4
				c0-0.1,0-0.2,0-0.2c0-0.1-0.1-0.1-0.2-0.1h-3.8c-0.1,0-0.2,0.1-0.2,0.2c-0.2,0.8-1.5,1.9-3.1,1.8c-2.2,0-3.4-1-3.6-3.5h11
				c0.1,0,0.2-0.1,0.3-0.2c0-0.3,0-0.5,0-0.8c0-2.3-0.7-4.5-2-6.1C47.1,11.4,45.1,10.3,42.5,10.3z M39.1,16.9
				c0.2-1.2,0.9-2.8,3.3-2.8c1.9,0,2.7,0.9,3.1,2.8H39.1z M68,4.9c0,0-0.1-0.1-0.2-0.1h-4.3c-0.1,0-0.1,0-0.2,0.1
				c0,0-0.1,0.1-0.1,0.2v7.2c-1.1-1.3-2.8-1.9-4.4-1.9c-2.4,0-4.2,1-5.4,2.6c-1.2,1.6-1.8,3.6-1.8,5.8c0,2.2,0.6,4.4,1.8,6
				c1.2,1.6,3.1,2.7,5.5,2.7c0,0,0,0,0,0c1.8,0,3.5-0.6,4.5-1.9v1.3c0,0.1,0,0.1,0.1,0.2c0,0,0.1,0.1,0.2,0.1h4.1
				c0.1,0,0.1,0,0.2-0.1c0,0,0.1-0.1,0.1-0.2V5.1C68.1,5,68.1,4.9,68,4.9z M60,23.6c-1.2,0-2.1-0.6-2.7-1.5
				c-0.6-0.9-0.9-2.1-0.9-3.3c0-2.5,0.9-4.7,3.5-4.7c2.6,0,3.4,2.2,3.4,4.7C63.4,21.3,62.6,23.6,60,23.6z"/>
		</g>
		<g>
			<path fill="#4DA6DE" d="M75.1,4.8h-4.3c-0.1,0-0.1,0-0.2,0.1c0,0-0.1,0.1-0.1,0.2v3.5c0,0.1,0,0.1,0.1,0.2c0,0,0.1,0.1,0.2,0.1
				h4.3c0.1,0,0.1,0,0.2-0.1c0,0,0.1-0.1,0.1-0.2V5.1c0-0.1,0-0.1-0.1-0.2C75.2,4.8,75.1,4.8,75.1,4.8z M75.1,10.8h-4.3
				c-0.1,0-0.1,0-0.2,0.1c0,0-0.1,0.1-0.1,0.2v15.7c0,0.1,0,0.1,0.1,0.2c0,0,0.1,0.1,0.2,0.1h4.3c0.1,0,0.1,0,0.2-0.1
				c0,0,0.1-0.1,0.1-0.2V11c0-0.1,0-0.1-0.1-0.2C75.2,10.8,75.1,10.8,75.1,10.8z M87,10.3c-1.7,0-3.4,0.7-4.6,2.2V11
				c0-0.1,0-0.1-0.1-0.2c0,0-0.1-0.1-0.2-0.1H78c-0.1,0-0.1,0-0.2,0.1c0,0-0.1,0.1-0.1,0.2v15.7c0,0.1,0,0.1,0.1,0.2
				c0,0,0.1,0.1,0.2,0.1h4.3c0.1,0,0.1,0,0.2-0.1c0,0,0.1-0.1,0.1-0.2v-8.2c0-1.6,0.3-2.6,0.7-3.3c0.5-0.6,1.2-0.9,2.3-0.9
				c1.8,0,2.5,1,2.5,3.6l0,8.8c0,0.1,0,0.1,0.1,0.2c0,0,0.1,0.1,0.2,0.1h4.3c0.1,0,0.1,0,0.2-0.1c0,0,0.1-0.1,0.1-0.2V17
				c0-2-0.3-3.6-1.2-4.8C90.9,11,89.3,10.3,87,10.3z M104,4.9c-0.7,0-1.5-0.1-2.3-0.1c-1.8,0-3.2,0.5-4.1,1.4
				c-0.9,0.9-1.4,2.2-1.4,3.6v1l-2.3,0c-0.1,0-0.1,0-0.2,0.1c0,0-0.1,0.1-0.1,0.2v2.9c0,0.1,0,0.1,0.1,0.2c0,0,0.1,0.1,0.2,0.1h2.3
				v12.5c0,0.1,0,0.1,0.1,0.2c0,0,0.1,0.1,0.2,0.1h4.3c0.1,0,0.1,0,0.2-0.1c0,0,0.1-0.1,0.1-0.2V14.1h2.7c0.1,0,0.1,0,0.2-0.1
				c0,0,0.1-0.1,0.1-0.2V11c0-0.1,0-0.1-0.1-0.2c0,0-0.1-0.1-0.2-0.1h-2.7v-0.7c0-0.6,0.1-1,0.3-1.2c0.2-0.2,0.5-0.3,1.1-0.3
				c0.5,0,1,0,1.5,0.1c0.1,0,0.1,0,0.2-0.1c0.1,0,0.1-0.1,0.1-0.2V5.2C104.3,5,104.2,4.9,104,4.9z M136.7,10.5
				c-0.3-0.1-0.7-0.2-1-0.2c-1.9,0-3.8,1-4.8,2.7v-2c0-0.1,0-0.1-0.1-0.2c0,0-0.1-0.1-0.2-0.1h-4.1c-0.1,0-0.1,0-0.2,0.1
				c0,0-0.1,0.1-0.1,0.2v15.7c0,0.1,0,0.1,0.1,0.2c0,0,0.1,0.1,0.2,0.1h4.3c0.1,0,0.1,0,0.2-0.1c0,0,0.1-0.1,0.1-0.2v-7.1
				c0-2.7,1-4.8,4-4.8c0.5,0,1.1,0.1,1.5,0.1c0.1,0,0.2,0,0.2-0.1c0.1,0,0.1-0.1,0.1-0.2v-4C136.9,10.6,136.8,10.5,136.7,10.5z
				 M161.1,11.7c-1.1-0.9-2.6-1.3-4.3-1.3c-2.1,0-3.7,1.1-4.7,2.4c-1-1.7-2.7-2.4-4.6-2.4c-1.9,0-3.4,0.8-4.6,2.1V11
				c0-0.1,0-0.1-0.1-0.2c0,0-0.1-0.1-0.2-0.1h-4.1c-0.1,0-0.1,0-0.2,0.1c0,0-0.1,0.1-0.1,0.2v15.7c0,0.1,0,0.1,0.1,0.2
				c0,0,0.1,0.1,0.2,0.1h4.3c0.1,0,0.1,0,0.2-0.1c0,0,0.1-0.1,0.1-0.2v-9.1c0-2.9,1.9-3.3,2.7-3.3c1.2,0,1.7,0.4,2,1
				c0.3,0.6,0.3,1.4,0.3,2.2c0,0.2,0,0.3,0,0.4l0,8.8c0,0.1,0,0.1,0.1,0.2c0,0,0.1,0.1,0.2,0.1h4.3c0.1,0,0.1,0,0.2-0.1
				c0,0,0.1-0.1,0.1-0.2v-8.7c0-1,0.1-1.9,0.5-2.6c0.4-0.7,1-1.1,2.1-1.1c1.2,0,1.7,0.4,2,1c0.3,0.6,0.4,1.5,0.4,2.6v8.9
				c0,0.1,0,0.1,0.1,0.2c0,0,0.1,0.1,0.2,0.1h4.3c0.1,0,0.1,0,0.2-0.1c0,0,0.1-0.1,0.1-0.2V16.2C162.8,14.1,162.2,12.6,161.1,11.7z"
				/>
		</g>
		<g>
			<path fill="#4DA6DE" d="M38.3,30.9h0.6v3h-0.5v-2.4l-1.6,2.4h-0.6v-3h0.5v2.4L38.3,30.9z"/>
			<path fill="#4DA6DE" d="M40.5,33.9H40v-3h0.5v1.2H42v-1.2h0.5v3H42v-1.4h-1.5V33.9z"/>
			<path fill="#4DA6DE" d="M45.3,34c-1.4,0-1.8-0.8-1.8-1.6c0-0.6,0.2-1.6,1.8-1.6v-1.1h0.5v1.1c0.7,0,1.8,0.2,1.8,1.6
				c0,0.9-0.5,1.6-1.8,1.6v1h-0.5V34z M45.3,31.2c-0.5,0-1.3,0.2-1.3,1.2c0,1.1,0.8,1.2,1.3,1.2V31.2z M45.8,33.6
				c1.1,0,1.3-0.7,1.3-1.2c0-0.4-0.2-1.3-1.3-1.2V33.6z"/>
			<path fill="#4DA6DE" d="M50,30.8c1.1,0,1.5,0.8,1.5,1.6S51.1,34,50,34c-1.1,0-1.5-0.8-1.5-1.6S48.9,30.8,50,30.8z M50,33.7
				c0.2,0,0.9-0.1,0.9-1.3c0-1.2-0.7-1.3-0.9-1.3c-0.2,0-0.9,0.1-0.9,1.3C49,33.6,49.7,33.7,50,33.7z"/>
			<path fill="#4DA6DE" d="M52.9,30.9v0.4h0c0.3-0.5,0.7-0.5,1-0.5c0.7,0,1.4,0.5,1.4,1.6c0,1.2-0.7,1.6-1.3,1.6c-0.1,0-0.7,0-1-0.6
				V35h-0.5v-4.1H52.9z M53.8,33.7c0.4,0,0.9-0.3,0.9-1.3c0-0.8-0.3-1.3-0.9-1.3c-0.3,0-0.9,0.1-0.9,1.3
				C52.9,33.4,53.4,33.7,53.8,33.7z"/>
			<path fill="#4DA6DE" d="M56.8,31.5L56.8,31.5v0.2v2.3h-0.5v-3H57l1,2.4l1-2.4h0.7v3h-0.5v-2.3l0-0.2h0l-1,2.4h-0.4L56.8,31.5z"/>
			<path fill="#4DA6DE" d="M60.8,31.8c0-0.4,0.2-1,1.3-1c0.5,0,1.2,0.1,1.2,1l0,1.4c0,0.2,0,0.4,0.3,0.4v0.4c-0.1,0-0.1,0-0.2,0
				c-0.3,0-0.5,0-0.5-0.4c-0.2,0.4-0.6,0.5-1,0.5c-0.6,0-1.1-0.3-1.1-0.9c0-0.5,0.3-0.8,1.5-1c0.4,0,0.6,0,0.6-0.4
				c0-0.1,0-0.6-0.7-0.6c-0.2,0-0.8,0-0.8,0.6H60.8z M62.7,32.4c-0.2,0.1-0.3,0.1-0.7,0.1c-0.5,0.1-0.9,0.1-0.9,0.6
				c0,0.3,0.2,0.6,0.6,0.6c0.4,0,0.9-0.2,0.9-1L62.7,32.4z"/>
			<path fill="#4DA6DE" d="M66.5,33.5v-2.6H67v2.6h0.5l0,1.1h-0.4v-0.8h-2.6v-3H65v2.6H66.5z"/>
			<path fill="#4DA6DE" d="M70.4,30.9h0.6v3h-0.5v-2.4l-1.6,2.4h-0.6v-3h0.5v2.4L70.4,30.9z"/>
			<path fill="#4DA6DE" d="M73.4,30.8c1.1,0,1.5,0.8,1.5,1.6S74.5,34,73.4,34c-1.1,0-1.5-0.8-1.5-1.6S72.3,30.8,73.4,30.8z
				 M73.4,33.7c0.2,0,0.9-0.1,0.9-1.3c0-1.2-0.7-1.3-0.9-1.3s-0.9,0.1-0.9,1.3C72.5,33.6,73.2,33.7,73.4,33.7z"/>
			<path fill="#4DA6DE" d="M76.4,33.9h-0.5v-3h0.5v1.2h1.5v-1.2h0.5v3h-0.5v-1.4h-1.5V33.9z"/>
			<path fill="#4DA6DE" d="M80.1,33.9h-0.5v-3h0.5v1.2h1.5v-1.2h0.5v3h-0.5v-1.4h-1.5V33.9z"/>
			<path fill="#4DA6DE" d="M84.5,30.8c1.1,0,1.5,0.8,1.5,1.6S85.6,34,84.5,34c-1.1,0-1.5-0.8-1.5-1.6S83.4,30.8,84.5,30.8z
				 M84.5,33.7c0.2,0,0.9-0.1,0.9-1.3c0-1.2-0.7-1.3-0.9-1.3c-0.2,0-0.9,0.1-0.9,1.3C83.6,33.6,84.3,33.7,84.5,33.7z"/>
			<path fill="#4DA6DE" d="M89.6,33c-0.1,0.4-0.4,1-1.3,1c-1.5,0-1.5-1.3-1.5-1.6c0-0.4,0.1-1.6,1.5-1.6c1.2,0,1.4,0.9,1.4,1.6
				c0,0,0,0.1,0,0.1h-2.3c0,0.5,0.3,1.1,1,1.1c0.5,0,0.8-0.3,0.8-0.6H89.6z M89.1,32.2c0-0.4-0.2-1-0.8-1c-0.8,0-0.9,0.6-0.9,1H89.1
				z"/>
			<path fill="#4DA6DE" d="M92.2,31.8c0-0.4,0.2-1,1.3-1c0.5,0,1.2,0.1,1.2,1l0,1.4c0,0.2,0,0.4,0.3,0.4v0.4c-0.1,0-0.1,0-0.2,0
				c-0.3,0-0.5,0-0.5-0.4c-0.2,0.4-0.6,0.5-1,0.5c-0.6,0-1.1-0.3-1.1-0.9c0-0.5,0.3-0.8,1.5-1c0.4,0,0.6,0,0.6-0.4
				c0-0.1,0-0.6-0.7-0.6c-0.2,0-0.8,0-0.8,0.6H92.2z M94.2,32.4c-0.2,0.1-0.3,0.1-0.7,0.1c-0.5,0.1-0.9,0.1-0.9,0.6
				c0,0.3,0.2,0.6,0.6,0.6c0.4,0,0.9-0.2,0.9-1L94.2,32.4z"/>
			<path fill="#4DA6DE" d="M96.4,33.9h-0.5v-3h2.1v0.4h-1.5V33.9z"/>
			<path fill="#4DA6DE" d="M101.4,33c-0.1,0.4-0.4,1-1.3,1c-1.5,0-1.5-1.3-1.5-1.6c0-0.4,0.1-1.6,1.5-1.6c1.2,0,1.4,0.9,1.4,1.6
				c0,0,0,0.1,0,0.1h-2.3c0,0.5,0.3,1.1,1,1.1c0.5,0,0.8-0.3,0.8-0.6H101.4z M100.9,32.2c0-0.4-0.2-1-0.8-1c-0.8,0-0.9,0.6-0.9,1
				H100.9z"/>
			<path fill="#4DA6DE" d="M102.9,33.9h-0.5v-3h0.5v1.2h1.5v-1.2h0.5v3h-0.5v-1.4h-1.5V33.9z"/>
			<path fill="#4DA6DE" d="M105.7,31.3v-0.4h2.6v0.4h-1v2.6h-0.5v-2.6H105.7z"/>
			<path fill="#4DA6DE" d="M111.8,32.8c0,0.4-0.2,1.2-1.3,1.2c-0.3,0-1.5,0-1.5-1.6c0-0.7,0.3-1.6,1.4-1.6c0.8,0,1.3,0.5,1.3,1.1
				h-0.5c-0.1-0.7-0.6-0.7-0.8-0.7c-0.7,0-0.9,0.6-0.9,1.2c0,0.7,0.3,1.3,0.9,1.3c0.6,0,0.8-0.5,0.8-0.8H111.8z"/>
			<path fill="#4DA6DE" d="M112.3,31.3v-0.4h2.6v0.4h-1v2.6h-0.5v-2.6H112.3z"/>
			<path fill="#4DA6DE" d="M117.2,30.9c0.3,0,1,0,1,0.7c0,0.5-0.4,0.7-0.5,0.7v0c0.6,0.1,0.7,0.5,0.7,0.8c0,0.7-0.6,0.8-1.1,0.8
				h-1.4v-3H117.2z M116.3,32.2h0.7c0.5,0,0.6-0.3,0.6-0.5c0-0.4-0.4-0.4-0.6-0.4h-0.7V32.2z M116.3,33.5h0.8c0.2,0,0.7,0,0.7-0.5
				c0-0.5-0.5-0.6-0.7-0.6h-0.7V33.5z"/>
			<path fill="#4DA6DE" d="M120.5,30.8c1.1,0,1.5,0.8,1.5,1.6s-0.4,1.6-1.5,1.6c-1.1,0-1.5-0.8-1.5-1.6S119.4,30.8,120.5,30.8z
				 M120.5,33.7c0.2,0,0.9-0.1,0.9-1.3c0-1.2-0.7-1.3-0.9-1.3c-0.2,0-0.9,0.1-0.9,1.3C119.6,33.6,120.3,33.7,120.5,33.7z"/>
		</g>
		<g>
			<polygon fill="#51A7E2" points="119.4,0 117.5,7 118.1,7 119.9,0 			"/>
		</g>
		<g>
			<polygon fill="#51A7E2" points="109.5,36 107.6,42.9 108.1,42.9 110,36 			"/>
		</g>
	</g>
</g>
</svg>
