<?xml version="1.0" encoding="utf-8"?>
<!-- Generator: Adobe Illustrator 18.0.0, SVG Export Plug-In . SVG Version: 6.00 Build 0)  -->
<!DOCTYPE svg PUBLIC "-//W3C//DTD SVG 1.1//EN" "http://www.w3.org/Graphics/SVG/1.1/DTD/svg11.dtd">
<svg version="1.1" id="Layer_1" xmlns="http://www.w3.org/2000/svg" xmlns:xlink="http://www.w3.org/1999/xlink" x="0px" y="0px"
	 viewBox="0 0 50 50" enable-background="new 0 0 50 50" xml:space="preserve">
<g>
	<rect fill="none" width="50" height="50"/>
	<g>
		<path fill="#FFFFFF" d="M38.7,33.3c-1.9,0-3.7,0.6-5.1,1.7l-14.5-8.7c0.1-0.4,0.1-0.9,0.1-1.4c0-0.5,0-0.9-0.1-1.4l14.5-8.7
			c1.4,1.1,3.2,1.7,5.1,1.7c4.6,0,8.3-3.7,8.3-8.3S43.3,0,38.7,0s-8.3,3.7-8.3,8.3c0,0.5,0,0.9,0.1,1.4L16,18.4
			c-1.4-1.1-3.2-1.7-5.1-1.7c-4.6,0-8.3,3.7-8.3,8.3s3.7,8.3,8.3,8.3c1.9,0,3.7-0.6,5.1-1.7l14.5,8.7c-0.1,0.4-0.1,0.9-0.1,1.4
			c0,4.6,3.7,8.3,8.3,8.3s8.3-3.7,8.3-8.3S43.3,33.3,38.7,33.3z"/>
	</g>
</g>
</svg>
