<?xml version="1.0" encoding="utf-8"?>
<!-- Generator: Adobe Illustrator 18.0.0, SVG Export Plug-In . SVG Version: 6.00 Build 0)  -->
<!DOCTYPE svg PUBLIC "-//W3C//DTD SVG 1.1//EN" "http://www.w3.org/Graphics/SVG/1.1/DTD/svg11.dtd">
<svg version="1.1" id="Layer_1" xmlns="http://www.w3.org/2000/svg" xmlns:xlink="http://www.w3.org/1999/xlink" x="0px" y="0px"
	 viewBox="-13 -13 50 50" enable-background="new -13 -13 50 50" xml:space="preserve">
<path fill="#FFFFFF" d="M36.4,22.3c-6.4-6-14.9-9.7-24.4-9.7s-18,3.7-24.4,9.7c-0.4,0.4-0.6,0.9-0.6,1.5c0,0.6,0.2,1.1,0.6,1.5
	l5.2,5.2c0.4,0.4,0.9,0.6,1.5,0.6c0.6,0,1.1-0.2,1.5-0.6c1.6-1.5,3.5-2.8,5.5-3.9c0.7-0.3,1.2-1,1.2-1.9v-6.5c3-1,6.2-1.5,9.6-1.5
	s6.6,0.5,9.6,1.5v6.5c0,0.8,0.5,1.5,1.2,1.9c2,1,3.9,2.3,5.5,3.9c0.4,0.4,0.9,0.6,1.5,0.6c0.6,0,1.1-0.2,1.5-0.6l5.2-5.2
	c0.4-0.4,0.6-0.9,0.6-1.5C37,23.2,36.8,22.7,36.4,22.3z M31.1,0.7l-2.9-2.9l-7.4,7.4l2.9,2.9C23.7,8.1,30.9,0.7,31.1,0.7z M14.1-8.2
	H9.9V2.2h4.2V-8.2z M0.3,8.1l2.9-2.9l-7.4-7.4l-3,3C-6.9,0.7,0.3,8.1,0.3,8.1z"/>
</svg>
